<svg width="380" height="105" xmlns="http://www.w3.org/2000/svg" version="1.1">
    <g>
        <title>Layer 1</title>
        <path fill-rule="nonzero" fill="#000000" d="m44.37333,76.49202l-11.37333,0l0,-67.54533l11.37333,0l0,67.54533z"
              id="path1"/>
        <path fill-rule="nonzero" fill="#000000" clip-path="url(#clipPath3)"
              d="m77.1292,76.492l-11.37333,0l0,-20.75333c0,-7.46533 -6.07333,-13.53867 -13.53867,-13.53867l-2.90933,0l0,-11.37333l2.90933,0c13.736,0 24.912,11.17467 24.912,24.912l0,20.75333z"
              id="path2"/>
        <path fill-rule="nonzero" fill="#000000" clip-path="url(#clipPath5)"
              d="m204.24132,99.00668l-11.37333,0l0,-67.54533l11.37333,0l0,67.54533z" id="path4"/>
        <path fill-rule="nonzero" fill="#000000" clip-path="url(#clipPath7)"
              d="m187.93333,77.12787l-2.90933,0c-13.736,0 -24.912,-11.176 -24.912,-24.912l0,-20.75333l11.37333,0l0,20.75333c0,7.46533 6.07333,13.53867 13.53867,13.53867l2.90933,0l0,11.37333z"
              id="path6"/>
        <path fill-rule="nonzero" fill="#000000" clip-path="url(#clipPath9)"
              d="m99.61333,76.49202l-11.37333,0l0,-45.02933l11.37333,0l0,45.02933z" id="path8"/>
        <path fill-rule="nonzero" fill="#000000" clip-path="url(#clipPath11)"
              d="m150.80521,76.96494l-42.22533,0l23.36267,-34.76533l-19.192,0l0,-11.37333l40.53866,0l-23.36267,34.76533l20.87867,0l0,11.37333z"
              id="path10"/>
        <path fill-rule="nonzero" fill="#000000" clip-path="url(#clipPath13)"
              d="m237.69772,77.12787l-7.50133,0c-9.99067,0 -18.11733,-8.128 -18.11733,-18.11867l0,-39.25466l11.37333,0l0,39.25466c0,3.72 3.02533,6.74533 6.744,6.74533l7.50133,0l0,11.37333l0,0.00001z"
              id="path12"/>
        <path fill-rule="nonzero" fill="#000000" clip-path="url(#clipPath15)"
              d="m234.20399,42.20002l-16.44,0l0,-11.37333l16.44,0l0,11.37333z" id="path14"/>
        <path fill-rule="nonzero" fill="#cf000f" clip-path="url(#clipPath17)"
              d="m100.4392,16.35226c0,3.59733 -2.916,6.512 -6.512,6.512c-3.59733,0 -6.51333,-2.91467 -6.51333,-6.512c0,-3.59733 2.916,-6.512 6.51333,-6.512c3.596,0 6.512,2.91467 6.512,6.512"
              id="path16"/>
        <path fill-rule="nonzero" fill="#000000" clip-path="url(#clipPath19)"
              d="m278.64001,76.38454c-2.348,0.944 -4.75467,1.41733 -7.224,1.41733c-2.592,0 -4.97733,-0.52533 -7.156,-1.57733c-2.18,-1.052 -3.90933,-2.54533 -5.19067,-4.48133c-1.28,-1.93467 -1.92,-4.168 -1.92,-6.69867c0,-2.652 0.60933,-4.968 1.82933,-6.94933c1.21867,-1.98133 2.888,-3.49867 5.00667,-4.55067c2.11867,-1.05067 4.488,-1.57733 7.11067,-1.57733c2.37733,0 4.78533,0.428 7.224,1.28133l0,5.624c-1.86,-0.79333 -3.76533,-1.18933 -5.716,-1.18933c-2.408,0 -4.40533,0.572 -5.98933,1.71467c-1.58533,1.14267 -2.37733,3.02533 -2.37733,5.64667c0,1.49467 0.41067,2.76 1.23467,3.796c0.82267,1.036 1.88933,1.82133 3.2,2.35467c1.31067,0.53333 2.69733,0.8 4.16133,0.8c1.12667,0 2.20133,-0.16 3.22267,-0.48c1.02133,-0.32 1.88267,-0.76933 2.584,-1.34933l0,6.21867l-0.00001,-0.00002z"
              id="path18"/>
        <path fill-rule="nonzero" fill="#000000" clip-path="url(#clipPath21)"
              d="m290.20853,70.3488c1.06667,1.43333 2.45333,2.14933 4.16133,2.14933c1.70667,0 3.08533,-0.716 4.13733,-2.14933c1.052,-1.432 1.57733,-3.32267 1.57733,-5.66933c0,-2.43867 -0.51067,-4.29067 -1.532,-5.556c-1.02133,-1.264 -2.416,-1.89733 -4.18267,-1.89733c-1.76933,0 -3.17067,0.63333 -4.20667,1.89733c-1.03733,1.26533 -1.55467,3.11733 -1.55467,5.556c0,2.34667 0.532,4.23733 1.6,5.66933m-2.67467,5.85333c-1.96667,-1.06667 -3.48267,-2.584 -4.54933,-4.54933c-1.068,-1.96667 -1.60133,-4.29067 -1.60133,-6.97333c0,-4.116 1.15867,-7.27067 3.476,-9.46533c2.316,-2.19467 5.48667,-3.292 9.51067,-3.292c3.992,0 7.148,1.09733 9.464,3.292c2.31733,2.19467 3.476,5.34933 3.476,9.46533c0,2.68267 -0.53467,5.00667 -1.60133,6.97333c-1.06667,1.96533 -2.576,3.48267 -4.52667,4.54933c-1.95067,1.06667 -4.22133,1.6 -6.812,1.6c-2.592,0 -4.87067,-0.53333 -6.836,-1.6"
              id="path20"/>
        <path fill-rule="nonzero" fill="#000000" clip-path="url(#clipPath23)"
              d="m318.28348,52.47054l0,2.60667c1.09733,-0.884 2.316,-1.56933 3.65867,-2.05733c1.34,-0.488 2.69733,-0.732 4.06933,-0.732c1.37067,0 2.56,0.25067 3.56667,0.75467c1.00533,0.50267 1.79733,1.196 2.37733,2.08c1.12667,-0.91467 2.36133,-1.61467 3.704,-2.10267c1.34,-0.488 2.69733,-0.732 4.06933,-0.732c2.316,0 4.09867,0.68533 5.34933,2.05733c1.24933,1.372 1.87467,3.15467 1.87467,5.34933l0,17.51333l-7.316,0l0,-16.27867c0,-0.884 -0.29733,-1.60667 -0.892,-2.172c-0.59467,-0.56267 -1.37867,-0.84533 -2.35467,-0.84533c-0.42667,0 -0.93067,0.09067 -1.50933,0.27467c-0.57867,0.18267 -1.14267,0.42667 -1.69067,0.73067c0.02933,0.184 0.04533,0.44267 0.04533,0.77733l0,17.51333l-7.316,0l0,-16.27867c0,-0.884 -0.29733,-1.60667 -0.892,-2.172c-0.59467,-0.56267 -1.38,-0.84533 -2.35467,-0.84533c-0.57867,0 -1.296,0.168 -2.14933,0.50267c-0.85333,0.336 -1.6,0.77733 -2.24,1.32667l0,17.46667l-7.316,0l0,-24.73733l7.316,0l0.00001,-0.00001z"
              id="path22"/>
        <path fill-rule="nonzero" fill="#cf000f" clip-path="url(#clipPath25)"
              d="m252.28227,72.49747c0,2.60133 -2.10933,4.70933 -4.70933,4.70933c-2.60133,0 -4.71067,-2.108 -4.71067,-4.70933c0,-2.60133 2.10933,-4.70933 4.71067,-4.70933c2.6,0 4.70933,2.108 4.70933,4.70933"
              id="path24"/>
    </g>

</svg>